<svg width="24" height="24" viewBox="0 0 24 24" fill="none" xmlns="http://www.w3.org/2000/svg">
<path fill-rule="evenodd" clip-rule="evenodd" d="M4.16138 10.2151C4.05852 10.3098 4 10.4432 4 10.583V19.3636C4 19.3636 4 19.3636 4 19.3636C4 19.3636 4 21 5.6 21C7.2 21 18.4 21 18.4 21C18.4 21 18.4 21 18.4 21C18.4 21 20 21 20 19.3636C20 17.8942 20 11.8062 20 10.5796C20 10.4398 19.9415 10.3098 19.8386 10.2151L12.3386 3.31168C12.1472 3.13553 11.8528 3.13553 11.6614 3.31168L4.16138 10.2151Z" stroke="#1B1D1F" stroke-width="2"/>
</svg>
